<svg xmlns="http://www.w3.org/2000/svg" viewBox="0 0 580 300" width="580" height="300" role="img" aria-labelledby="fam-t fam-d">
<title id="fam-t">Pedigree of a family with a rare trait</title>
<desc id="fam-d">A three-generation pedigree. Generation I: an unaffected man, I-1, and an unaffected woman, I-2. Their children in generation II: II-1, an affected man; II-2, an unaffected man; II-3, an unaffected woman. II-3 has children with II-4, an unaffected man from outside the family. Their children in generation III: III-1, an affected woman; III-2, an unaffected man; III-3, an unaffected woman.</desc>
<defs><marker id="fam-a" viewBox="0 0 10 10" refX="8" refY="5" markerWidth="7" markerHeight="7" orient="auto-start-reverse"><path d="M0,0 L10,5 L0,10 Z" fill="#1F2A28"/></marker></defs>
<rect width="580" height="300" fill="#ffffff"/>
<g font-family="Arial,Helvetica,sans-serif" fill="#1F2A28">
<text x="24.0" y="55.0" font-size="15" text-anchor="middle" font-weight="700">I</text>
<text x="24.0" y="155.0" font-size="15" text-anchor="middle" font-weight="700">II</text>
<text x="24.0" y="255.0" font-size="15" text-anchor="middle" font-weight="700">III</text>
<rect x="186.0" y="36.0" width="28" height="28" fill="#FFFFFF" stroke="#1F2A28" stroke-width="2"/>
<text x="200.0" y="81.0" font-size="13" text-anchor="middle" font-weight="700">I-1</text>
<circle cx="300" cy="50" r="14.0" fill="#FFFFFF" stroke="#1F2A28" stroke-width="2"/>
<text x="300.0" y="81.0" font-size="13" text-anchor="middle" font-weight="700">I-2</text>
<line x1="214.0" y1="50.0" x2="286.0" y2="50.0" stroke="#1F2A28" stroke-width="2"/>
<line x1="250.0" y1="50.0" x2="250.0" y2="94.0" stroke="#1F2A28" stroke-width="2"/>
<line x1="130.0" y1="94.0" x2="310.0" y2="94.0" stroke="#1F2A28" stroke-width="2"/>
<line x1="130.0" y1="94.0" x2="130.0" y2="136.0" stroke="#1F2A28" stroke-width="2"/>
<line x1="220.0" y1="94.0" x2="220.0" y2="136.0" stroke="#1F2A28" stroke-width="2"/>
<line x1="310.0" y1="94.0" x2="310.0" y2="136.0" stroke="#1F2A28" stroke-width="2"/>
<rect x="116.0" y="136.0" width="28" height="28" fill="#1F2A28" stroke="#1F2A28" stroke-width="2"/>
<text x="130.0" y="181.0" font-size="13" text-anchor="middle" font-weight="700">II-1</text>
<rect x="206.0" y="136.0" width="28" height="28" fill="#FFFFFF" stroke="#1F2A28" stroke-width="2"/>
<text x="220.0" y="181.0" font-size="13" text-anchor="middle" font-weight="700">II-2</text>
<circle cx="310" cy="150" r="14.0" fill="#FFFFFF" stroke="#1F2A28" stroke-width="2"/>
<text x="310.0" y="181.0" font-size="13" text-anchor="middle" font-weight="700">II-3</text>
<rect x="396.0" y="136.0" width="28" height="28" fill="#FFFFFF" stroke="#1F2A28" stroke-width="2"/>
<text x="410.0" y="181.0" font-size="13" text-anchor="middle" font-weight="700">II-4</text>
<line x1="324.0" y1="150.0" x2="396.0" y2="150.0" stroke="#1F2A28" stroke-width="2"/>
<line x1="360.0" y1="150.0" x2="360.0" y2="194.0" stroke="#1F2A28" stroke-width="2"/>
<line x1="290.0" y1="194.0" x2="430.0" y2="194.0" stroke="#1F2A28" stroke-width="2"/>
<line x1="290.0" y1="194.0" x2="290.0" y2="236.0" stroke="#1F2A28" stroke-width="2"/>
<line x1="360.0" y1="194.0" x2="360.0" y2="236.0" stroke="#1F2A28" stroke-width="2"/>
<line x1="430.0" y1="194.0" x2="430.0" y2="236.0" stroke="#1F2A28" stroke-width="2"/>
<circle cx="290" cy="250" r="14.0" fill="#1F2A28" stroke="#1F2A28" stroke-width="2"/>
<text x="290.0" y="281.0" font-size="13" text-anchor="middle" font-weight="700">III-1</text>
<rect x="346.0" y="236.0" width="28" height="28" fill="#FFFFFF" stroke="#1F2A28" stroke-width="2"/>
<text x="360.0" y="281.0" font-size="13" text-anchor="middle" font-weight="700">III-2</text>
<circle cx="430" cy="250" r="14.0" fill="#FFFFFF" stroke="#1F2A28" stroke-width="2"/>
<text x="430.0" y="281.0" font-size="13" text-anchor="middle" font-weight="700">III-3</text>
<rect x="470.0" y="20.0" width="100.0" height="70.0" rx="6" fill="none" stroke="#5D6B69" stroke-width="1"/>
<rect x="478" y="30" width="16" height="16" fill="#1F2A28"/>
<text x="500.0" y="43.0" font-size="11" text-anchor="start">affected</text>
<rect x="478" y="58" width="16" height="16" fill="#FFFFFF" stroke="#1F2A28" stroke-width="1.5"/>
<text x="500.0" y="71.0" font-size="11" text-anchor="start">unaffected</text>
</g>
</svg>
